HIERARCHY
ROOT pelvis
{
  OFFSET 0 100 0
  CHANNELS 6 Xposition Yposition Zposition Zrotation Xrotation Yrotation
  JOINT pelvis_right_femur
  {
    OFFSET -10.78128 -3.44521 -0.5502486
    CHANNELS 3 Zrotation Xrotation Yrotation
    JOINT right_femur_tibia
    {
      OFFSET -0.8047443 -44.0398 -0.1307829
      CHANNELS 3 Zrotation Xrotation Yrotation
      JOINT right_tibia_foot
      {
        OFFSET 3.006224 -47.83518 -5
        CHANNELS 3 Zrotation Xrotation Yrotation
        End Site
        {
          OFFSET 0 -5 15
        }
      }
    }
  }
  JOINT pelvis_left_femur
  {
    OFFSET 10.78128 -3.44521 -0.5502486
    CHANNELS 3 Zrotation Xrotation Yrotation
    JOINT left_femur_tibia
    {
      OFFSET 0.8047443 -44.0398 -0.1307829
      CHANNELS 3 Zrotation Xrotation Yrotation
      JOINT left_tibia_foot
      {
        OFFSET -4.370144 -48.10324 -4.275266
        CHANNELS 3 Zrotation Xrotation Yrotation
        End Site
        {
          OFFSET 0 -5 15
        }
      }
    }
  }
  JOINT pelvis_spine1
  {
    OFFSET 0 6.468898 -3.129235
    CHANNELS 3 Zrotation Xrotation Yrotation
    JOINT spine1
    {
      OFFSET 0 23.15396 4.99043
      CHANNELS 3 Zrotation Xrotation Yrotation
      JOINT spine2
      {
        OFFSET 0 20.79997 -5.064912
        CHANNELS 3 Zrotation Xrotation Yrotation
        JOINT neck
        {
          OFFSET 0 14.38658 9.616178
          CHANNELS 3 Zrotation Xrotation Yrotation
          End Site
          {
            OFFSET 0 20 0
          }
        }
      }
      JOINT right_manubrium
      {
        OFFSET -5.722621 16.35077 3.967754
        CHANNELS 3 Zrotation Xrotation Yrotation
        JOINT right_clavicle
        {
          OFFSET -13.16364 1.694482 -4.693211
          CHANNELS 3 Zrotation Xrotation Yrotation
          JOINT right_humerus
          {
            OFFSET -28.5034 -0.3100689 -2.792744
            CHANNELS 3 Zrotation Xrotation Yrotation
            JOINT right_radius
            {
              OFFSET -25.15693 0.02248979 -1.271978
              CHANNELS 3 Zrotation Xrotation Yrotation
              End Site
              {
                OFFSET -15 0 0
              }
            }
          }
        }
      }
      JOINT left_manubrium
      {
        OFFSET 5.722621 16.35077 3.967754
        CHANNELS 3 Zrotation Xrotation Yrotation
        JOINT left_clavicle
        {
          OFFSET 13.16364 1.694482 -4.693211
          CHANNELS 3 Zrotation Xrotation Yrotation
          JOINT left_humerus
          {
            OFFSET 29.39168 -1.063119 -2.237045
            CHANNELS 3 Zrotation Xrotation Yrotation
            JOINT left_radius
            {
              OFFSET 24.59957 -0.9528479 0.9047498
              CHANNELS 3 Zrotation Xrotation Yrotation
              End Site
              {
                OFFSET 15 -0 -0
              }
            }
          }
        }
      }
    }
  }
}
MOTION
Frames: 17
Frame Time: 0.0416666666667
0 103.5113 0 0.5876036 -0.3326723 0.004577926 3.642243 -15.56025 9.869623 -0 41.2326 -0 -6.123246 -18.00994 -3.627346 -6.609898 9.788418 -22.79322 -0 5.989628 -0 7.557002 -17.10588 26.0745 -3.523232 -4.632656 4.644387 2.598059 9.180051 -8.104693 0.8786194 22.17884 6.920348 2.920502 -24.71162 9.179863 6.773896 -19.68983 11.64853 85.19117 35.1017 -19.2559 -0 0 17.25202 -7.127672 8.297106 3.910442 5.980522 -20.00759 -0.5342038 -95.47572 26.28965 23.60068 0 0 -12.8477 7.836323 19.10506 4.839927
0.2639501 103.3487 1.382115 0.5081319 -0.01055116 0.02173037 3.998913 -16.84251 10.16185 -0 40.43442 -0 -6.05225 -17.4589 -3.658456 -6.616209 9.825768 -22.7767 -0 5.75916 -0 8.00187 -17.25667 26.29669 -3.457755 -4.477072 4.764327 2.553961 9.234216 -8.06 1.045583 21.96677 6.872713 2.974833 -24.83994 9.298235 6.761605 -19.73532 11.59054 85.29877 35.40169 -19.34371 -0 0 17.27012 -6.90147 8.403896 3.835931 6.095099 -20.05093 -0.5608293 -95.31586 26.29202 23.49908 0 0 -13.49431 8.182788 18.73929 4.778048
0.5183017 102.7069 4.287683 -1.662795 3.255069 0.3999762 8.068009 -31.33416 9.253207 -0 25.67794 -0 -6.718466 -9.156712 -2.928905 -5.223011 12.9102 -20.21963 -0 6.13847 -0 3.695588 -22.79902 22.23119 -1.742459 -2.318258 4.221424 2.550697 8.90726 -8.116574 1.987275 19.95078 7.511965 4.013007 -26.14374 10.36715 5.913408 -18.41777 10.82166 86.62039 35.31899 -21.22172 -0 0 15.15186 -7.419432 10.42431 3.717937 8.222964 -21.94864 -0.2925768 -93.61188 26.96429 20.85098 0 0 -19.89978 8.465363 17.48574 5.792028
0.8070868 101.9299 6.998955 -0.9513704 3.541727 0.7230491 8.05345 -31.02582 10.6486 -0 27.3028 -0 -5.656772 -9.443052 -2.699378 -6.07338 12.33363 -21.18862 -0 5.184855 -0 7.003627 -20.99113 24.35726 -2.349819 -2.072378 4.735621 2.533538 9.192725 -7.861495 1.951646 19.91761 7.6818 4.172981 -26.18066 10.48488 6.352988 -18.83589 11.10235 86.94869 38.05271 -21.45787 -0 0 15.11078 -5.680172 9.840128 3.556538 7.429621 -21.15317 -1.189351 -93.26558 28.06662 21.46218 0 0 -22.78215 8.550598 15.10056 6.727226
1.132593 101.0853 10.10762 -1.076778 4.110123 1.213374 8.561575 -33.11356 10.39006 -0 24.74282 -0 -5.346602 -7.427018 -1.949802 -6.159218 12.84888 -20.72677 -0 5.876271 -0 6.442515 -21.13949 23.56235 -2.190721 -1.226516 4.616697 2.588615 9.148123 -7.721221 1.845711 19.69237 8.258886 4.588076 -26.45785 10.75907 6.270384 -18.48163 11.18131 87.625 39.31645 -22.11397 -0 0 14.02418 -5.105633 9.849144 3.484466 7.335971 -21.14683 -1.813903 -92.58964 28.92469 20.97164 0 0 -25.89868 8.39678 13.46691 7.387014
1.497245 100.1612 13.59271 -1.222837 4.364008 1.76158 8.670004 -34.28637 9.563423 -0 22.47376 -0 -5.237987 -5.996083 -1.299074 -6.181121 13.42422 -19.93221 -0 6.805435 -0 6.294741 -21.05792 22.77925 -2.11076 -0.8102844 4.373139 2.845553 9.189002 -7.786785 1.658373 19.57114 8.586502 4.687566 -26.81748 10.88832 5.956979 -18.22472 11.30719 88.06551 39.38921 -22.44834 -0 0 12.9696 -5.21973 9.736767 3.680373 7.336856 -21.27347 -2.044401 -91.42539 28.00532 19.72866 0 0 -27.48406 9.469525 12.27036 5.799721
1.89702 99.24513 17.53091 -1.582017 4.666395 2.384608 8.82956 -35.22105 8.58005 -0 20.25966 -0 -5.460824 -4.51071 -0.6695351 -5.951394 14.01081 -18.86261 -0 8.691813 -0 4.381447 -21.37447 20.88331 -1.766718 -0.4531498 4.035371 3.03122 9.081516 -7.951747 1.389796 19.41038 8.938986 4.865922 -27.08182 10.85268 5.733215 -17.75842 11.36538 88.47473 39.10584 -22.99732 -0 0 12.10118 -5.503642 9.710519 3.715224 7.488793 -21.61138 -2.071263 -90.84799 27.54775 18.91996 0 0 -28.35144 9.680628 11.70703 5.093187
2.335292 98.34151 21.86446 -1.821565 4.707342 3.026082 8.734238 -35.39536 7.519617 -0 18.62458 -0 -5.724401 -3.322682 -0.1057314 -5.785485 14.43426 -17.82371 -0 10.72718 -0 2.778549 -21.32347 19.23046 -1.486732 -0.2117574 3.738945 3.193837 9.028047 -8.101229 1.109902 19.38269 9.192537 4.942279 -27.27025 10.75266 5.424303 -17.39709 11.44621 88.91818 38.59401 -23.44827 -0 0 11.26551 -5.892422 9.555189 3.78549 7.529968 -21.89591 -2.148427 -90.25673 26.90099 18.10868 0 0 -28.89185 10.02646 11.22167 4.136802
2.81188 97.51181 26.6322 -2.069136 4.605659 3.674486 8.540038 -34.97929 6.310868 -0 17.14905 -0 -6.197352 -2.210876 0.4096691 -5.552223 14.74218 -16.56364 -0 13.61641 -0 0.7811193 -20.98611 17.20095 -1.129258 -0.1048757 3.433718 3.337126 8.998287 -8.308636 0.7934946 19.41139 9.334357 4.935321 -27.39628 10.50797 5.037314 -17.0346 11.52541 89.44526 37.67345 -23.95237 -0 0 10.43207 -6.512068 9.335987 3.900988 7.537885 -22.26519 -2.17247 -89.73342 26.06804 17.30793 0 0 -28.92517 10.31408 10.94114 3.10262
3.322295 96.81241 31.85517 -2.281634 4.310571 4.288998 8.290522 -33.85959 5.053914 -0 15.88228 -0 -6.880916 -1.259838 0.7821383 -5.279097 14.8674 -15.11467 -0 17.50805 -0 -1.203589 -20.13764 15.01839 -0.7262368 -0.2046116 3.163156 3.454249 9.055426 -8.562787 0.4861335 19.50993 9.28159 4.785466 -27.42715 10.10747 4.532125 -16.74079 11.59955 90.08031 36.29064 -24.47104 -0 0 9.598733 -7.424151 9.076571 4.139359 7.456843 -22.69957 -2.169873 -89.20798 24.91857 16.49586 0 0 -28.46063 10.63105 10.82609 1.936061
3.853528 96.32937 37.54816 -2.448766 3.789016 4.817949 8.076387 -31.85477 3.887169 -0 14.85699 -0 -7.832458 -0.5209975 0.9010104 -4.940277 14.59005 -13.48581 -0 22.94181 -0 -3.069476 -18.48709 12.67908 -0.2395335 -0.5737503 2.999124 3.48583 9.268119 -8.833321 0.2403754 19.6852 8.957274 4.460123 -27.28026 9.517864 3.905983 -16.56749 11.66449 90.89128 34.42302 -25.02446 -0 0 8.78905 -8.737439 8.880753 4.615019 7.209312 -23.21695 -2.187161 -88.73637 23.57557 15.84554 0 0 -27.52465 10.76128 10.9362 1.077839
4.387504 96.15173 43.67011 -2.512074 3.000645 5.197869 7.958751 -28.89932 3.002557 -0 14.12696 -0 -8.946211 -0.1063262 0.6471354 -4.563492 13.55985 -11.84706 -0 30.08979 -0 -4.308688 -15.77707 10.50895 0.3104516 -1.221409 3.072556 3.348014 9.746056 -9.008213 0.1462644 19.93821 8.347677 3.965868 -26.84094 8.805185 3.188806 -16.61953 11.73657 91.88037 32.2609 -25.54209 -0 0 8.052564 -10.54929 8.972323 5.514674 6.686994 -23.78488 -2.356869 -88.30974 22.24705 15.60713 0 0 -26.53799 10.45457 11.22853 1.172169
4.914019 96.36461 50.09776 -2.422208 2.024507 5.379989 7.929015 -25.075 2.579112 -0 13.68645 -0 -9.907866 -0.2084969 0.01816914 -4.185438 11.16904 -10.44903 -0 38.89032 -0 -4.594192 -11.91554 8.758061 0.8861918 -2.029943 3.564869 2.937842 10.56795 -8.907703 0.2620436 20.19513 7.608475 3.435002 -25.98647 8.123821 2.600461 -16.95492 11.86526 92.82823 30.39906 -25.87992 -0 0 7.575811 -12.91256 9.764984 7.063909 5.829258 -24.32758 -2.79672 -87.98797 21.33239 16.23473 0 0 -26.20181 9.274521 11.52749 3.209224
5.452473 96.9923 56.61033 -2.105071 1.067181 5.359382 7.757984 -20.55949 2.597804 -0 13.42917 -0 -10.15346 -1.108267 -0.6634597 -3.879754 6.776939 -9.494646 -0 48.3011 -0 -4.094678 -7.429956 7.635618 1.329747 -2.640705 4.589679 2.238503 11.62433 -8.363723 0.4997665 20.33845 7.136163 3.146917 -24.72354 7.683534 2.566749 -17.48497 12.13142 93.13577 29.84873 -25.74571 -0 0 7.693434 -15.65384 11.57844 9.256913 4.773323 -24.66297 -3.457674 -87.92321 21.19073 18.05673 0 0 -27.07984 7.078454 11.39924 7.5158
6.039352 97.92652 62.94509 -1.483466 0.2592092 5.173726 7.122579 -15.24232 2.80959 -0 13.08261 -0 -9.381062 -3.029351 -0.8968769 -3.636022 0.2482858 -8.829976 -0 56.31539 -0 -3.600415 -3.545858 7.377195 1.357593 -2.625301 5.987887 1.427832 12.5295 -7.433722 0.6444068 20.38563 7.191017 3.271397 -23.29296 7.501502 3.335147 -17.98395 12.53969 92.13215 31.20829 -24.69244 -0 0 8.649547 -18.2646 14.0192 11.5396 3.88351 -24.54242 -3.974758 -88.32238 21.76463 20.66576 0 0 -28.46014 4.587921 10.57662 12.50172
6.676142 98.87841 68.90039 -0.5876296 -0.6026825 4.877973 6.032515 -8.894675 2.958687 -0 12.28185 -0 -8.080464 -5.837143 -0.5889875 -3.21131 -7.572724 -8.012842 -0 60.4232 -0 -3.591772 -1.513356 8.382407 0.7992048 -1.906519 7.316676 0.7600368 12.89996 -6.402868 0.626641 20.57813 7.431352 3.573902 -22.02013 7.341666 4.366851 -18.40803 12.90541 89.80816 33.54874 -22.26805 -0 0 10.30105 -20.10961 15.88438 13.0812 3.466744 -23.8427 -4.000858 -89.13944 22.54869 22.91647 0 0 -28.5768 2.948187 9.568026 15.49704
7.3429 99.44671 74.41495 0.3411072 -1.743784 4.548179 4.904793 -1.684549 2.917521 -0 10.9173 -0 -7.008297 -9.160334 -0.08760713 -2.216208 -15.46463 -6.737822 -0 58.40899 -0 -3.649338 -1.586943 10.69038 -0.1136308 -0.8646551 8.202413 0.2942965 12.69705 -5.483961 0.5791311 21.04045 7.282967 3.6443 -21.06366 7.001397 4.742118 -19.08938 13.01136 86.81372 35.10626 -18.37079 -0 0 12.53751 -21.02237 16.2901 13.68672 3.521516 -22.656 -3.598269 -90.11611 22.97893 24.244 0 0 -26.36819 2.544215 9.089718 15.41579
